<mxfile host="Electron" modified="2023-08-22T08:41:18.484Z" agent="Mozilla/5.0 (Macintosh; Intel Mac OS X 10_15_7) AppleWebKit/537.36 (KHTML, like Gecko) draw.io/21.6.8 Chrome/114.0.5735.289 Electron/25.5.0 Safari/537.36" etag="KaNRpwZZqSYuQREeQOIe" version="21.6.8" type="device">
  <diagram name="Page-1" id="_pkHw_upwbv1__Z-_ok1">
    <mxGraphModel dx="2074" dy="1214" grid="1" gridSize="10" guides="1" tooltips="1" connect="1" arrows="1" fold="1" page="1" pageScale="1" pageWidth="1100" pageHeight="850" math="0" shadow="0">
      <root>
        <mxCell id="0" />
        <mxCell id="1" parent="0" />
        <mxCell id="pXtJM1IIfQx-fLiryeN3-28" style="edgeStyle=orthogonalEdgeStyle;rounded=0;orthogonalLoop=1;jettySize=auto;html=1;exitX=1;exitY=0.5;exitDx=0;exitDy=0;entryX=0.25;entryY=0;entryDx=0;entryDy=0;strokeWidth=1.5;fillColor=#f5f5f5;strokeColor=#666666;fontSize=13;" parent="1" source="gUEWbeJQI7iGJOpnqmWs-1" target="gUEWbeJQI7iGJOpnqmWs-6" edge="1">
          <mxGeometry relative="1" as="geometry">
            <mxPoint x="440" y="239.9999999999999" as="sourcePoint" />
          </mxGeometry>
        </mxCell>
        <mxCell id="gUEWbeJQI7iGJOpnqmWs-1" value="Pick random values for vcmax, jmax, gs" style="rounded=0;whiteSpace=wrap;html=1;fontSize=13;strokeWidth=2;fontFamily=Tahoma;fillColor=#e1d5e7;strokeColor=#9673a6;" parent="1" vertex="1">
          <mxGeometry x="280" y="120" width="160" height="40" as="geometry" />
        </mxCell>
        <mxCell id="pXtJM1IIfQx-fLiryeN3-29" style="edgeStyle=orthogonalEdgeStyle;rounded=0;orthogonalLoop=1;jettySize=auto;html=1;exitX=0;exitY=0.5;exitDx=0;exitDy=0;strokeWidth=1.5;fillColor=#f5f5f5;strokeColor=#666666;fontSize=13;entryX=0.75;entryY=0;entryDx=0;entryDy=0;" parent="1" source="gUEWbeJQI7iGJOpnqmWs-4" target="gUEWbeJQI7iGJOpnqmWs-6" edge="1">
          <mxGeometry relative="1" as="geometry" />
        </mxCell>
        <mxCell id="gUEWbeJQI7iGJOpnqmWs-4" value="&lt;div style=&quot;font-size: 13px;&quot;&gt;Pick random&amp;nbsp;&lt;span style=&quot;background-color: initial; font-size: 13px;&quot;&gt;tc_leaf&lt;/span&gt;&lt;/div&gt;" style="rounded=0;whiteSpace=wrap;html=1;fontSize=13;strokeWidth=2;fontFamily=Tahoma;fillColor=#ffe6cc;strokeColor=#d79b00;" parent="1" vertex="1">
          <mxGeometry x="720" y="120" width="160" height="40" as="geometry" />
        </mxCell>
        <mxCell id="gUEWbeJQI7iGJOpnqmWs-9" value="" style="edgeStyle=orthogonalEdgeStyle;rounded=0;orthogonalLoop=1;jettySize=auto;html=1;fontSize=13;strokeWidth=1.5;fontFamily=Tahoma;fillColor=#f5f5f5;strokeColor=#666666;" parent="1" source="gUEWbeJQI7iGJOpnqmWs-6" target="gUEWbeJQI7iGJOpnqmWs-8" edge="1">
          <mxGeometry relative="1" as="geometry" />
        </mxCell>
        <mxCell id="gUEWbeJQI7iGJOpnqmWs-6" value="&lt;div style=&quot;font-size: 13px;&quot;&gt;Use random tc_leaf and gs&lt;br style=&quot;font-size: 13px;&quot;&gt;&lt;/div&gt;&lt;div style=&quot;font-size: 13px;&quot;&gt;in&amp;nbsp;&lt;span style=&quot;background-color: initial; font-size: 13px;&quot;&gt;energy balance&lt;/span&gt;&lt;/div&gt;" style="rounded=0;whiteSpace=wrap;html=1;fontSize=13;strokeWidth=2;fontFamily=Tahoma;fillColor=#ffe6cc;strokeColor=#d79b00;" parent="1" vertex="1">
          <mxGeometry x="480" y="200" width="200" height="80" as="geometry" />
        </mxCell>
        <mxCell id="pXtJM1IIfQx-fLiryeN3-2" value="Yes" style="edgeStyle=orthogonalEdgeStyle;rounded=0;orthogonalLoop=1;jettySize=auto;html=1;exitX=0.5;exitY=1;exitDx=0;exitDy=0;entryX=0.5;entryY=0;entryDx=0;entryDy=0;fontStyle=1;fillColor=#d5e8d4;strokeColor=#82b366;fontSize=13;strokeWidth=1.5;fontFamily=Tahoma;" parent="1" source="gUEWbeJQI7iGJOpnqmWs-8" target="gUEWbeJQI7iGJOpnqmWs-11" edge="1">
          <mxGeometry x="-0.2" relative="1" as="geometry">
            <mxPoint as="offset" />
          </mxGeometry>
        </mxCell>
        <mxCell id="pXtJM1IIfQx-fLiryeN3-32" value="&amp;nbsp;No&amp;nbsp;" style="edgeStyle=orthogonalEdgeStyle;rounded=0;orthogonalLoop=1;jettySize=auto;html=1;exitX=1;exitY=0.5;exitDx=0;exitDy=0;fontStyle=1;strokeWidth=1.5;fillColor=#f8cecc;strokeColor=#b85450;fontSize=13;" parent="1" source="gUEWbeJQI7iGJOpnqmWs-8" target="gUEWbeJQI7iGJOpnqmWs-4" edge="1">
          <mxGeometry x="-0.7391" relative="1" as="geometry">
            <mxPoint as="offset" />
          </mxGeometry>
        </mxCell>
        <mxCell id="gUEWbeJQI7iGJOpnqmWs-8" value="&lt;div style=&quot;font-size: 13px;&quot;&gt;Check if&amp;nbsp;&lt;/div&gt;&lt;div style=&quot;font-size: 13px;&quot;&gt;&lt;span style=&quot;font-size: 13px;&quot;&gt;random tc_leaf&amp;nbsp;&lt;/span&gt;&lt;span style=&quot;font-size: 13px;&quot;&gt;=&lt;/span&gt;&lt;/div&gt;&lt;div style=&quot;font-size: 13px;&quot;&gt;&lt;span style=&quot;font-size: 13px;&quot;&gt;energy-balance tc_leaf&lt;/span&gt;&lt;/div&gt;" style="whiteSpace=wrap;html=1;rounded=0;fontSize=13;fillColor=#ffe6cc;strokeColor=#d79b00;labelBorderColor=none;labelBackgroundColor=none;strokeWidth=2;fontFamily=Tahoma;" parent="1" vertex="1">
          <mxGeometry x="480" y="320" width="200" height="80" as="geometry" />
        </mxCell>
        <mxCell id="pXtJM1IIfQx-fLiryeN3-9" value="" style="edgeStyle=orthogonalEdgeStyle;rounded=0;orthogonalLoop=1;jettySize=auto;html=1;fontSize=13;strokeWidth=1.5;fontFamily=Tahoma;fillColor=#f5f5f5;strokeColor=#666666;" parent="1" source="gUEWbeJQI7iGJOpnqmWs-11" target="pXtJM1IIfQx-fLiryeN3-8" edge="1">
          <mxGeometry relative="1" as="geometry" />
        </mxCell>
        <mxCell id="gUEWbeJQI7iGJOpnqmWs-11" value="Return final tc_leaf" style="whiteSpace=wrap;html=1;rounded=0;fontSize=13;fillColor=#f5f5f5;strokeColor=#666666;labelBorderColor=none;labelBackgroundColor=none;strokeWidth=2;fontFamily=Tahoma;fontColor=#333333;" parent="1" vertex="1">
          <mxGeometry x="480" y="450" width="200" height="40" as="geometry" />
        </mxCell>
        <mxCell id="pXtJM1IIfQx-fLiryeN3-6" style="edgeStyle=orthogonalEdgeStyle;rounded=0;orthogonalLoop=1;jettySize=auto;html=1;exitX=0.5;exitY=1;exitDx=0;exitDy=0;fontSize=13;strokeWidth=2;fontFamily=Tahoma;" parent="1" source="gUEWbeJQI7iGJOpnqmWs-11" target="gUEWbeJQI7iGJOpnqmWs-11" edge="1">
          <mxGeometry relative="1" as="geometry" />
        </mxCell>
        <mxCell id="pXtJM1IIfQx-fLiryeN3-11" value="" style="edgeStyle=orthogonalEdgeStyle;rounded=0;orthogonalLoop=1;jettySize=auto;html=1;fontSize=13;strokeWidth=1.5;fontFamily=Tahoma;fillColor=#f5f5f5;strokeColor=#666666;" parent="1" source="pXtJM1IIfQx-fLiryeN3-8" target="pXtJM1IIfQx-fLiryeN3-10" edge="1">
          <mxGeometry relative="1" as="geometry" />
        </mxCell>
        <mxCell id="pXtJM1IIfQx-fLiryeN3-8" value="Calculate carbon costs" style="whiteSpace=wrap;html=1;rounded=0;fontSize=13;fillColor=#e1d5e7;strokeColor=#9673a6;labelBorderColor=none;labelBackgroundColor=none;strokeWidth=2;fontFamily=Tahoma;" parent="1" vertex="1">
          <mxGeometry x="480" y="520" width="200" height="40" as="geometry" />
        </mxCell>
        <mxCell id="pXtJM1IIfQx-fLiryeN3-12" value="&amp;nbsp;No&amp;nbsp;" style="edgeStyle=orthogonalEdgeStyle;rounded=0;orthogonalLoop=1;jettySize=auto;html=1;entryX=0;entryY=0.5;entryDx=0;entryDy=0;fillColor=#f8cecc;strokeColor=#b85450;fontSize=13;strokeWidth=1.5;fontFamily=Tahoma;fontStyle=1;labelBorderColor=none;" parent="1" source="pXtJM1IIfQx-fLiryeN3-10" target="gUEWbeJQI7iGJOpnqmWs-1" edge="1">
          <mxGeometry x="-0.92" relative="1" as="geometry">
            <mxPoint as="offset" />
          </mxGeometry>
        </mxCell>
        <mxCell id="pXtJM1IIfQx-fLiryeN3-14" value="Yes" style="edgeStyle=orthogonalEdgeStyle;rounded=0;orthogonalLoop=1;jettySize=auto;html=1;fontSize=13;strokeWidth=1.5;fontFamily=Tahoma;fontStyle=1;fillColor=#d5e8d4;strokeColor=#82b366;" parent="1" source="pXtJM1IIfQx-fLiryeN3-10" target="pXtJM1IIfQx-fLiryeN3-13" edge="1">
          <mxGeometry relative="1" as="geometry" />
        </mxCell>
        <mxCell id="pXtJM1IIfQx-fLiryeN3-10" value="Check if costs are minimal" style="whiteSpace=wrap;html=1;rounded=0;fontSize=13;strokeWidth=2;fontFamily=Tahoma;fillColor=#e1d5e7;strokeColor=#9673a6;" parent="1" vertex="1">
          <mxGeometry x="480" y="600" width="200" height="40" as="geometry" />
        </mxCell>
        <mxCell id="pXtJM1IIfQx-fLiryeN3-13" value="Return optimal &lt;br style=&quot;font-size: 13px;&quot;&gt;vcmax, jmax, gs, and tc_leaf" style="whiteSpace=wrap;html=1;rounded=0;fontSize=13;strokeWidth=2;fontFamily=Tahoma;fillColor=#f5f5f5;strokeColor=#666666;fontColor=#333333;" parent="1" vertex="1">
          <mxGeometry x="480" y="690" width="200" height="40" as="geometry" />
        </mxCell>
        <mxCell id="pXtJM1IIfQx-fLiryeN3-33" style="edgeStyle=orthogonalEdgeStyle;rounded=0;orthogonalLoop=1;jettySize=auto;html=1;entryX=1;entryY=0.75;entryDx=0;entryDy=0;strokeWidth=1.5;fillColor=#f5f5f5;strokeColor=#666666;fontSize=13;" parent="1" source="pXtJM1IIfQx-fLiryeN3-17" target="gUEWbeJQI7iGJOpnqmWs-8" edge="1">
          <mxGeometry relative="1" as="geometry" />
        </mxCell>
        <mxCell id="pXtJM1IIfQx-fLiryeN3-34" style="edgeStyle=orthogonalEdgeStyle;rounded=0;orthogonalLoop=1;jettySize=auto;html=1;exitX=0;exitY=0.5;exitDx=0;exitDy=0;entryX=1;entryY=0.5;entryDx=0;entryDy=0;strokeWidth=1.5;fillColor=#f5f5f5;strokeColor=#666666;fontSize=13;" parent="1" source="pXtJM1IIfQx-fLiryeN3-17" target="pXtJM1IIfQx-fLiryeN3-8" edge="1">
          <mxGeometry relative="1" as="geometry" />
        </mxCell>
        <mxCell id="pXtJM1IIfQx-fLiryeN3-17" value="Abiotic Environment&lt;br style=&quot;font-size: 13px;&quot;&gt;(tc_air, vpd_air, co2, ppfd, patm)" style="whiteSpace=wrap;html=1;fillColor=#f5f5f5;fontColor=#333333;strokeColor=#666666;strokeWidth=2;fontSize=13;" parent="1" vertex="1">
          <mxGeometry x="760" y="450" width="210" height="40" as="geometry" />
        </mxCell>
        <mxCell id="pXtJM1IIfQx-fLiryeN3-27" style="edgeStyle=orthogonalEdgeStyle;rounded=0;orthogonalLoop=1;jettySize=auto;html=1;exitX=0.5;exitY=1;exitDx=0;exitDy=0;strokeWidth=2;fontSize=13;" parent="1" source="gUEWbeJQI7iGJOpnqmWs-8" target="gUEWbeJQI7iGJOpnqmWs-8" edge="1">
          <mxGeometry relative="1" as="geometry" />
        </mxCell>
        <mxCell id="pXtJM1IIfQx-fLiryeN3-43" value="&lt;b style=&quot;border-color: var(--border-color); font-size: 13px; text-align: right;&quot;&gt;Energy Balance Model&lt;/b&gt;" style="shape=curlyBracket;whiteSpace=wrap;html=1;rounded=1;flipH=1;labelPosition=right;verticalLabelPosition=middle;align=left;verticalAlign=middle;fillColor=#ffe6cc;strokeColor=#d79b00;strokeWidth=2;" parent="1" vertex="1">
          <mxGeometry x="890" y="110" width="30" height="300" as="geometry" />
        </mxCell>
        <mxCell id="pXtJM1IIfQx-fLiryeN3-44" value="Numerical P-Model" style="shape=curlyBracket;whiteSpace=wrap;html=1;rounded=1;labelPosition=left;verticalLabelPosition=middle;align=right;verticalAlign=middle;fillColor=#e1d5e7;strokeColor=#9673a6;strokeWidth=2;fontStyle=1" parent="1" vertex="1">
          <mxGeometry x="190" y="110" width="40" height="570" as="geometry" />
        </mxCell>
      </root>
    </mxGraphModel>
  </diagram>
</mxfile>
